<?xml version="1.0" standalone="no"?>
<!DOCTYPE svg PUBLIC "-//W3C//DTD SVG 20010904//EN"
 "http://www.w3.org/TR/2001/REC-SVG-20010904/DTD/svg10.dtd">
<svg version="1.0" xmlns="http://www.w3.org/2000/svg"
 width="518.000000pt" height="518.000000pt" viewBox="0 0 518.000000 518.000000"
 preserveAspectRatio="xMidYMid meet">

<g transform="translate(0.000000,518.000000) scale(0.100000,-0.100000)"
fill="#000000" stroke="none">
<path d="M800 3396 c-50 -36 -97 -115 -124 -205 -21 -71 -21 -237 -1 -316 33
-127 108 -227 179 -241 41 -7 358 21 424 38 28 7 54 24 77 49 58 65 69 100 69
229 1 100 -2 122 -23 167 -31 71 -90 123 -137 123 -46 0 -89 -23 -111 -60 -22
-38 -35 -34 -45 14 -14 68 -58 144 -110 191 -46 41 -54 45 -102 45 -42 0 -59
-6 -96 -34z m193 -184 c78 -81 76 -287 -3 -372 -48 -52 -106 -35 -147 43 -25
48 -30 195 -8 253 39 103 103 134 158 76z m348 -152 c39 -73 17 -218 -37 -242
-66 -30 -117 97 -84 211 22 79 87 96 121 31z"/>
<path d="M1902 3378 c-16 -16 -18 -1428 -2 -1459 9 -16 22 -19 74 -19 41 0 68
5 75 13 7 9 12 119 13 337 2 227 6 324 14 327 6 2 89 -142 184 -319 95 -178
179 -331 188 -340 12 -14 31 -18 93 -18 44 0 81 5 84 11 8 12 5 18 -227 442
-92 170 -168 312 -168 316 0 4 74 163 165 353 91 190 165 351 165 357 0 7 -32
11 -90 11 l-90 0 -147 -292 c-82 -160 -152 -291 -158 -290 -6 1 -12 110 -15
289 l-5 288 -70 3 c-46 2 -74 -1 -83 -10z"/>
<path d="M4376 3375 c-10 -27 -7 -235 4 -256 9 -16 22 -19 74 -19 42 0 67 5
75 14 8 9 11 56 9 142 l-3 129 -76 3 c-63 2 -78 0 -83 -13z"/>
<path d="M3890 2963 c-86 -14 -132 -26 -145 -39 -21 -21 -22 -192 -1 -200 8
-3 48 2 89 10 112 23 163 21 192 -8 25 -25 39 -86 33 -146 l-3 -35 -70 -6
c-157 -15 -230 -60 -272 -171 -25 -66 -23 -247 4 -314 45 -114 110 -164 211
-164 46 0 67 5 94 24 35 23 36 23 52 5 12 -14 29 -19 71 -19 50 0 56 3 65 24
12 33 13 671 0 769 -13 103 -42 169 -97 217 -57 50 -132 68 -223 53z m164
-639 c3 -9 6 -55 6 -104 0 -83 -1 -90 -26 -109 -35 -28 -87 -36 -126 -20 -42
17 -72 85 -63 139 7 42 48 86 88 95 82 17 114 17 121 -1z"/>
<path d="M2576 2915 c-3 -8 8 -88 24 -177 16 -90 54 -305 85 -478 30 -173 60
-325 65 -337 9 -21 16 -23 100 -23 l91 0 13 33 c8 17 37 131 66 252 29 121 54
222 56 224 11 11 23 -21 44 -114 46 -209 81 -351 90 -372 9 -21 16 -23 97 -23
98 0 109 4 117 40 21 88 156 949 151 968 -5 20 -11 22 -76 22 -47 0 -71 -4
-74 -12 -3 -7 -29 -154 -59 -327 -30 -172 -57 -316 -61 -319 -3 -3 -8 -3 -11
1 -4 3 -39 146 -79 316 -40 171 -75 317 -78 326 -5 11 -21 15 -57 15 -43 0
-52 -3 -60 -22 -6 -13 -39 -151 -75 -308 -36 -157 -70 -296 -76 -310 -11 -24
-12 -24 -20 -5 -5 11 -34 157 -65 325 -31 168 -58 308 -61 313 -2 4 -35 7 -73
7 -51 0 -69 -4 -74 -15z"/>
<path d="M4376 2915 c-11 -29 -7 -975 4 -996 9 -16 22 -19 74 -19 41 0 67 5
75 14 8 9 10 152 9 512 l-3 499 -76 3 c-63 2 -78 0 -83 -13z"/>
<path d="M1090 2589 c-165 -25 -165 -25 -178 -53 -9 -21 -3 -37 59 -137 l69
-114 0 -75 c0 -63 -5 -85 -30 -138 -17 -35 -30 -70 -30 -78 0 -8 20 -24 44
-36 l44 -21 139 48 c93 33 147 58 166 76 27 27 27 28 27 168 0 163 7 155 -106
118 l-69 -24 0 -69 0 -69 33 3 c26 3 32 0 32 -16 0 -25 -19 -40 -59 -48 -23
-5 -36 -3 -42 7 -15 24 -11 212 5 235 9 13 44 30 88 43 122 37 118 34 118 90
0 68 -20 89 -95 101 -73 12 -61 12 -215 -11z"/>
<path d="M594 2514 c-17 -25 -19 -51 -19 -259 0 -290 -1 -288 131 -357 49 -26
103 -47 119 -47 29 -1 33 5 103 144 66 134 72 150 72 208 0 61 -2 65 -75 174
l-75 112 -67 21 c-38 12 -91 24 -119 27 -49 5 -53 4 -70 -23z m145 -110 c84
-28 85 -29 84 -225 0 -113 -4 -174 -12 -182 -14 -14 -112 18 -145 48 -20 18
-24 34 -29 125 -6 93 -2 204 9 238 5 16 32 15 93 -4z"/>
</g>
</svg>
