<?xml version="1.0" encoding="UTF-8"?>
<!DOCTYPE svg PUBLIC "-//W3C//DTD SVG 1.1//EN" "http://www.w3.org/Graphics/SVG/1.1/DTD/svg11.dtd">
<svg xmlns="http://www.w3.org/2000/svg" version="1.1" width="518px" height="518px" style="shape-rendering:geometricPrecision; text-rendering:geometricPrecision; image-rendering:optimizeQuality; fill-rule:evenodd; clip-rule:evenodd" xmlns:xlink="http://www.w3.org/1999/xlink">
<g><path style="opacity:0.992" fill="#020303" d="M 230.5,80.5 C 294.56,75.0262 351.227,92.5262 400.5,133C 454.963,183.685 469.796,244.185 445,314.5C 421.224,363.313 383.724,396.813 332.5,415C 294.01,427.812 254.677,431.146 214.5,425C 156.264,414.991 110.098,386.158 76,338.5C 47.4086,290.776 43.7419,241.109 65,189.5C 91.352,139.723 131.519,106.556 185.5,90C 200.4,85.6864 215.4,82.5197 230.5,80.5 Z"/></g>
<g><path style="opacity:1" fill="#fcfdfd" d="M 322.5,142.5 C 322.5,154.833 322.5,167.167 322.5,179.5C 314.648,179.175 306.982,179.508 299.5,180.5C 292.196,180.9 286.696,184.233 283,190.5C 281.584,196.715 281.084,203.048 281.5,209.5C 294.99,210.496 308.656,210.829 322.5,210.5C 322.5,222.833 322.5,235.167 322.5,247.5C 308.99,247.171 295.656,247.504 282.5,248.5C 281.501,287.663 281.168,326.996 281.5,366.5C 261.924,366.826 242.424,366.493 223,365.5C 222.5,326.501 222.333,287.501 222.5,248.5C 210.345,247.505 198.011,247.171 185.5,247.5C 185.5,235.167 185.5,222.833 185.5,210.5C 197.655,209.505 209.989,209.171 222.5,209.5C 216.616,175.392 229.949,153.226 262.5,143C 282.497,142.5 302.497,142.333 322.5,142.5 Z"/></g>
<g><path style="opacity:1" fill="#c5c6c6" d="M 322.5,142.5 C 323.495,154.989 323.829,167.656 323.5,180.5C 315.5,180.5 307.5,180.5 299.5,180.5C 306.982,179.508 314.648,179.175 322.5,179.5C 322.5,167.167 322.5,154.833 322.5,142.5 Z"/></g>
<g><path style="opacity:1" fill="#c0c0c2" d="M 185.5,210.5 C 185.5,222.833 185.5,235.167 185.5,247.5C 198.011,247.171 210.345,247.505 222.5,248.5C 209.833,248.5 197.167,248.5 184.5,248.5C 184.171,235.656 184.505,222.989 185.5,210.5 Z"/></g>
<g><path style="opacity:1" fill="#b7b8b9" d="M 281.5,209.5 C 295.5,209.5 309.5,209.5 323.5,209.5C 323.5,222.5 323.5,235.5 323.5,248.5C 309.833,248.5 296.167,248.5 282.5,248.5C 295.656,247.504 308.99,247.171 322.5,247.5C 322.5,235.167 322.5,222.833 322.5,210.5C 308.656,210.829 294.99,210.496 281.5,209.5 Z"/></g>
</svg>
