<?xml version="1.0" encoding="UTF-8"?>
<!DOCTYPE svg PUBLIC "-//W3C//DTD SVG 1.1//EN" "http://www.w3.org/Graphics/SVG/1.1/DTD/svg11.dtd">
<svg xmlns="http://www.w3.org/2000/svg" version="1.1" width="528px" height="532px" style="shape-rendering:geometricPrecision; text-rendering:geometricPrecision; image-rendering:optimizeQuality; fill-rule:evenodd; clip-rule:evenodd" xmlns:xlink="http://www.w3.org/1999/xlink">
<g><path style="opacity:0.969" fill="#000000" d="M 250.5,69.5 C 329.178,62.956 396.011,87.6226 451,143.5C 503.183,204.108 514.516,271.775 485,346.5C 451.535,410.596 399.368,450.763 328.5,467C 240.45,483.643 164.95,460.476 102,397.5C 51.7811,339.545 39.4478,274.212 65,201.5C 89.406,147.761 128.906,109.595 183.5,87C 205.178,78.1651 227.511,72.3318 250.5,69.5 Z M 340.5,155.5 C 360.397,155.685 377.73,162.351 392.5,175.5C 407.086,172.583 420.919,167.583 434,160.5C 434.5,160.667 435,160.833 435.5,161C 433.038,166.403 430.204,171.569 427,176.5C 422.356,182.066 417.189,187.066 411.5,191.5C 412.167,191.833 412.833,192.167 413.5,192.5C 424.137,190.756 434.47,188.256 444.5,185C 439.5,190.667 434.5,196.333 429.5,202C 423.333,206.833 417.167,211.667 411,216.5C 410.672,273.649 388.505,320.149 344.5,356C 291.982,393.538 233.982,405.538 170.5,392C 150.322,387.609 131.322,380.276 113.5,370C 140.559,371.897 166.559,367.564 191.5,357C 198.535,354.157 204.868,350.324 210.5,345.5C 182.021,342.648 162.021,328.315 150.5,302.5C 158.369,302.392 166.369,302.392 174.5,302.5C 174.719,301.325 174.386,300.325 173.5,299.5C 144.555,290.892 128.889,271.559 126.5,241.5C 135.071,244.143 143.737,246.476 152.5,248.5C 153.408,247.21 153.241,245.877 152,244.5C 139.661,236.817 131.995,225.817 129,211.5C 125.005,195.506 127.672,180.84 137,167.5C 174.91,206.198 221.076,227.198 275.5,230.5C 271.117,196.105 285.117,172.605 317.5,160C 325.155,157.662 332.821,156.162 340.5,155.5 Z"/></g>
</svg>
