<?xml version="1.0" encoding="UTF-8"?>
<!DOCTYPE svg PUBLIC "-//W3C//DTD SVG 1.1//EN" "http://www.w3.org/Graphics/SVG/1.1/DTD/svg11.dtd">
<svg xmlns="http://www.w3.org/2000/svg" version="1.1" width="518px" height="518px" style="shape-rendering:geometricPrecision; text-rendering:geometricPrecision; image-rendering:optimizeQuality; fill-rule:evenodd; clip-rule:evenodd" xmlns:xlink="http://www.w3.org/1999/xlink">
<g><path style="opacity:0.985" fill="#010101" d="M 231.5,83.5 C 281.223,78.6126 327.557,88.6126 370.5,113.5C 409.332,138.168 435.499,172.501 449,216.5C 460.919,269.798 449.586,317.132 415,358.5C 379.616,398.611 335.116,421.444 281.5,427C 219.127,432.87 164.127,415.87 116.5,376C 62.2688,324.219 48.2688,262.886 74.5,192C 92.9807,154.518 120.647,125.852 157.5,106C 181.089,94.4877 205.756,86.9877 231.5,83.5 Z"/></g>
<g><path style="opacity:1" fill="#777777" d="M 245.5,142.5 C 242.373,143.581 239.04,144.247 235.5,144.5C 235.918,143.778 236.584,143.278 237.5,143C 240.146,142.503 242.813,142.336 245.5,142.5 Z"/></g>
<g><path style="opacity:1" fill="#fafafa" d="M 245.5,142.5 C 273.323,140.466 299.657,145.466 324.5,157.5C 324.973,158.906 325.973,159.573 327.5,159.5C 337.87,166.026 346.537,174.36 353.5,184.5C 353.427,186.027 354.094,187.027 355.5,187.5C 356.401,188.29 357.068,189.29 357.5,190.5C 357.427,192.027 358.094,193.027 359.5,193.5C 359.025,196.313 360.025,198.313 362.5,199.5C 362.166,202.491 363.166,204.824 365.5,206.5C 366.11,207.391 366.443,208.391 366.5,209.5C 366.635,211.554 365.968,213.221 364.5,214.5C 358.193,216.433 351.859,217.433 345.5,217.5C 344.649,214.422 343.649,211.422 342.5,208.5C 342.573,206.973 341.906,205.973 340.5,205.5C 331.534,187.863 317.867,175.53 299.5,168.5C 297.898,166.926 295.898,166.259 293.5,166.5C 286.308,164.73 278.974,163.73 271.5,163.5C 266.678,162.834 261.678,162.501 256.5,162.5C 249.589,162.276 242.922,162.942 236.5,164.5C 234.585,164.216 232.919,164.549 231.5,165.5C 228.848,165.41 226.515,166.076 224.5,167.5C 202.688,173.403 187.354,186.736 178.5,207.5C 176.935,209.509 175.935,211.843 175.5,214.5C 175.5,214.833 175.5,215.167 175.5,215.5C 173.446,218.008 172.446,221.008 172.5,224.5C 171.833,228.5 171.167,232.5 170.5,236.5C 169.016,241.925 168.349,247.591 168.5,253.5C 168.501,257.349 168.835,261.016 169.5,264.5C 171.073,282.108 176.073,298.775 184.5,314.5C 184.427,316.027 185.094,317.027 186.5,317.5C 196.297,330.903 209.297,339.57 225.5,343.5C 227.515,344.924 229.848,345.59 232.5,345.5C 235.942,346.748 239.608,347.581 243.5,348C 252.01,348.823 260.344,348.657 268.5,347.5C 275.27,347.714 281.937,347.047 288.5,345.5C 291.152,345.59 293.485,344.924 295.5,343.5C 308.848,338.666 319.848,330.666 328.5,319.5C 329.906,319.027 330.573,318.027 330.5,316.5C 330.796,314.597 331.463,312.93 332.5,311.5C 334.074,309.898 334.741,307.898 334.5,305.5C 334.666,300.489 334.499,295.489 334,290.5C 333.768,289.263 333.268,288.263 332.5,287.5C 329.132,278.132 322.798,271.798 313.5,268.5C 311.147,289.166 300.481,303.499 281.5,311.5C 277.838,311.723 274.505,312.723 271.5,314.5C 263.5,314.5 255.5,314.5 247.5,314.5C 245.898,312.926 243.898,312.259 241.5,312.5C 217.091,306.014 207.091,290.347 211.5,265.5C 212.906,265.027 213.573,264.027 213.5,262.5C 221.207,249.642 232.54,242.309 247.5,240.5C 251.36,240.192 255.026,239.525 258.5,238.5C 269.893,238.677 281.227,238.677 292.5,238.5C 289.246,226.083 281.246,218.583 268.5,216C 258.056,214.405 248.056,215.739 238.5,220C 236.242,222.767 233.575,224.934 230.5,226.5C 224.88,224.023 219.547,221.023 214.5,217.5C 213.224,216.386 213.224,215.386 214.5,214.5C 215.906,214.027 216.573,213.027 216.5,211.5C 221.679,206.331 227.679,202.331 234.5,199.5C 237.152,199.59 239.485,198.924 241.5,197.5C 250.752,195.875 260.085,195.208 269.5,195.5C 272.763,196.482 276.097,197.149 279.5,197.5C 280.93,198.537 282.597,199.204 284.5,199.5C 294.762,202.784 302.429,209.117 307.5,218.5C 307.427,220.027 308.094,221.027 309.5,221.5C 310.338,221.842 310.672,222.508 310.5,223.5C 310.69,226.855 311.69,229.855 313.5,232.5C 315.215,236.966 315.882,241.633 315.5,246.5C 329.34,250.684 340.34,258.684 348.5,270.5C 348.427,272.027 349.094,273.027 350.5,273.5C 352.915,276.34 354.248,279.673 354.5,283.5C 354.259,285.898 354.926,287.898 356.5,289.5C 357.922,297.258 357.588,304.925 355.5,312.5C 354.129,314.936 353.129,317.603 352.5,320.5C 343.922,338.131 330.589,350.798 312.5,358.5C 310.033,358.755 308.033,359.755 306.5,361.5C 301.163,362.836 295.83,364.169 290.5,365.5C 286.96,365.753 283.627,366.419 280.5,367.5C 279.833,367.5 279.167,367.5 278.5,367.5C 263.483,367.689 248.483,367.355 233.5,366.5C 228.988,365.903 224.655,364.903 220.5,363.5C 216.767,361.589 212.767,360.256 208.5,359.5C 183.124,349.79 165.791,332.124 156.5,306.5C 156.573,304.973 155.906,303.973 154.5,303.5C 153.192,299.224 152.192,294.891 151.5,290.5C 151.59,287.848 150.924,285.515 149.5,283.5C 149.007,281.194 148.674,278.861 148.5,276.5C 147.167,262.5 147.167,248.5 148.5,234.5C 148.5,233.833 148.5,233.167 148.5,232.5C 149.222,232.082 149.722,231.416 150,230.5C 150.497,227.854 150.664,225.187 150.5,222.5C 150.5,222.167 150.5,221.833 150.5,221.5C 152.074,219.898 152.741,217.898 152.5,215.5C 152.366,213.708 152.699,212.042 153.5,210.5C 155.897,207.691 157.23,204.358 157.5,200.5C 167.561,177.44 184.227,161.106 207.5,151.5C 210.855,151.31 213.855,150.31 216.5,148.5C 219.152,148.59 221.485,147.924 223.5,146.5C 223.833,146.5 224.167,146.5 224.5,146.5C 227.152,146.59 229.485,145.924 231.5,144.5C 232.833,144.5 234.167,144.5 235.5,144.5C 239.04,144.247 242.373,143.581 245.5,142.5 Z"/></g>
<g><path style="opacity:1" fill="#ababab" d="M 231.5,144.5 C 229.485,145.924 227.152,146.59 224.5,146.5C 226.515,145.076 228.848,144.41 231.5,144.5 Z"/></g>
<g><path style="opacity:1" fill="#b0b0b0" d="M 223.5,146.5 C 221.485,147.924 219.152,148.59 216.5,148.5C 218.515,147.076 220.848,146.41 223.5,146.5 Z"/></g>
<g><path style="opacity:1" fill="#979797" d="M 216.5,148.5 C 213.855,150.31 210.855,151.31 207.5,151.5C 210.084,149.528 213.084,148.528 216.5,148.5 Z"/></g>
<g><path style="opacity:1" fill="#545454" d="M 324.5,157.5 C 326.027,157.427 327.027,158.094 327.5,159.5C 325.973,159.573 324.973,158.906 324.5,157.5 Z"/></g>
<g><path style="opacity:1" fill="#414141" d="M 271.5,163.5 C 259.815,163.365 248.148,163.698 236.5,164.5C 242.922,162.942 249.589,162.276 256.5,162.5C 261.678,162.501 266.678,162.834 271.5,163.5 Z"/></g>
<g><path style="opacity:1" fill="#3b3b3b" d="M 231.5,165.5 C 229.485,166.924 227.152,167.59 224.5,167.5C 226.515,166.076 228.848,165.41 231.5,165.5 Z"/></g>
<g><path style="opacity:1" fill="#b4b4b4" d="M 293.5,166.5 C 295.898,166.259 297.898,166.926 299.5,168.5C 297.102,168.741 295.102,168.074 293.5,166.5 Z"/></g>
<g><path style="opacity:1" fill="#989898" d="M 353.5,184.5 C 354.906,184.973 355.573,185.973 355.5,187.5C 354.094,187.027 353.427,186.027 353.5,184.5 Z"/></g>
<g><path style="opacity:1" fill="#797979" d="M 357.5,190.5 C 358.906,190.973 359.573,191.973 359.5,193.5C 358.094,193.027 357.427,192.027 357.5,190.5 Z"/></g>
<g><path style="opacity:1" fill="#7d7d7d" d="M 269.5,195.5 C 260.085,195.208 250.752,195.875 241.5,197.5C 243.811,195.932 246.478,195.098 249.5,195C 256.346,194.179 263.013,194.346 269.5,195.5 Z"/></g>
<g><path style="opacity:1" fill="#afafaf" d="M 359.5,193.5 C 360.492,195.456 361.492,197.456 362.5,199.5C 360.025,198.313 359.025,196.313 359.5,193.5 Z"/></g>
<g><path style="opacity:1" fill="#666666" d="M 279.5,197.5 C 281.698,197.12 283.365,197.787 284.5,199.5C 282.597,199.204 280.93,198.537 279.5,197.5 Z"/></g>
<g><path style="opacity:1" fill="#acacac" d="M 241.5,197.5 C 239.485,198.924 237.152,199.59 234.5,199.5C 236.515,198.076 238.848,197.41 241.5,197.5 Z"/></g>
<g><path style="opacity:1" fill="#9f9f9f" d="M 362.5,199.5 C 364.065,201.509 365.065,203.843 365.5,206.5C 363.166,204.824 362.166,202.491 362.5,199.5 Z"/></g>
<g><path style="opacity:1" fill="#9c9c9c" d="M 157.5,200.5 C 157.23,204.358 155.897,207.691 153.5,210.5C 154.267,206.851 155.6,203.518 157.5,200.5 Z"/></g>
<g><path style="opacity:1" fill="#797979" d="M 340.5,205.5 C 341.906,205.973 342.573,206.973 342.5,208.5C 341.094,208.027 340.427,207.027 340.5,205.5 Z"/></g>
<g><path style="opacity:1" fill="#565656" d="M 178.5,207.5 C 178.834,210.491 177.834,212.824 175.5,214.5C 175.935,211.843 176.935,209.509 178.5,207.5 Z"/></g>
<g><path style="opacity:1" fill="#9b9b9b" d="M 216.5,211.5 C 216.573,213.027 215.906,214.027 214.5,214.5C 214.427,212.973 215.094,211.973 216.5,211.5 Z"/></g>
<g><path style="opacity:1" fill="#9a9a9a" d="M 366.5,209.5 C 367.451,210.919 367.784,212.585 367.5,214.5C 366.5,214.5 365.5,214.5 364.5,214.5C 365.968,213.221 366.635,211.554 366.5,209.5 Z"/></g>
<g><path style="opacity:1" fill="#a9a9a9" d="M 175.5,215.5 C 174.946,218.746 173.946,221.746 172.5,224.5C 172.446,221.008 173.446,218.008 175.5,215.5 Z"/></g>
<g><path style="opacity:1" fill="#7f7f7f" d="M 152.5,215.5 C 152.741,217.898 152.074,219.898 150.5,221.5C 150.259,219.102 150.926,217.102 152.5,215.5 Z"/></g>
<g><path style="opacity:1" fill="#979797" d="M 307.5,218.5 C 308.906,218.973 309.573,219.973 309.5,221.5C 308.094,221.027 307.427,220.027 307.5,218.5 Z"/></g>
<g><path style="opacity:1" fill="#959595" d="M 310.5,223.5 C 312.472,226.084 313.472,229.084 313.5,232.5C 311.69,229.855 310.69,226.855 310.5,223.5 Z"/></g>
<g><path style="opacity:1" fill="#a4a4a4" d="M 150.5,222.5 C 150.664,225.187 150.497,227.854 150,230.5C 149.722,231.416 149.222,232.082 148.5,232.5C 148.753,228.96 149.419,225.627 150.5,222.5 Z"/></g>
<g><path style="opacity:1" fill="#919191" d="M 258.5,238.5 C 255.026,239.525 251.36,240.192 247.5,240.5C 250.845,238.783 254.511,238.116 258.5,238.5 Z"/></g>
<g><path style="opacity:1" fill="#bcbcbc" d="M 170.5,236.5 C 169.768,245.815 169.434,255.148 169.5,264.5C 168.835,261.016 168.501,257.349 168.5,253.5C 168.349,247.591 169.016,241.925 170.5,236.5 Z"/></g>
<g><path style="opacity:1" fill="#5e5e5e" d="M 148.5,234.5 C 147.167,248.5 147.167,262.5 148.5,276.5C 146.988,269.395 146.321,262.062 146.5,254.5C 146.276,247.589 146.942,240.922 148.5,234.5 Z"/></g>
<g><path style="opacity:1" fill="#8c8c8c" d="M 280.5,258.5 C 284.79,258.198 288.79,258.864 292.5,260.5C 288.236,260.656 284.236,259.989 280.5,258.5 Z"/></g>
<g><path style="opacity:1" fill="#040404" d="M 280.5,258.5 C 284.236,259.989 288.236,260.656 292.5,260.5C 292.492,263.545 292.159,266.545 291.5,269.5C 290.076,271.515 289.41,273.848 289.5,276.5C 285.564,286.478 278.23,292.144 267.5,293.5C 259.076,293.786 250.742,293.12 242.5,291.5C 233.824,287.216 230.824,280.549 233.5,271.5C 234.906,271.027 235.573,270.027 235.5,268.5C 240.176,263.028 246.176,259.861 253.5,259C 262.494,258.5 271.494,258.334 280.5,258.5 Z"/></g>
<g><path style="opacity:1" fill="#6b6b6b" d="M 213.5,262.5 C 213.573,264.027 212.906,265.027 211.5,265.5C 211.427,263.973 212.094,262.973 213.5,262.5 Z"/></g>
<g><path style="opacity:1" fill="#656565" d="M 235.5,268.5 C 235.573,270.027 234.906,271.027 233.5,271.5C 233.427,269.973 234.094,268.973 235.5,268.5 Z"/></g>
<g><path style="opacity:1" fill="#7c7c7c" d="M 291.5,269.5 C 291.59,272.152 290.924,274.485 289.5,276.5C 289.41,273.848 290.076,271.515 291.5,269.5 Z"/></g>
<g><path style="opacity:1" fill="#989898" d="M 348.5,270.5 C 349.906,270.973 350.573,271.973 350.5,273.5C 349.094,273.027 348.427,272.027 348.5,270.5 Z"/></g>
<g><path style="opacity:1" fill="#8b8b8b" d="M 354.5,283.5 C 356.074,285.102 356.741,287.102 356.5,289.5C 354.926,287.898 354.259,285.898 354.5,283.5 Z"/></g>
<g><path style="opacity:1" fill="#8f8f8f" d="M 149.5,283.5 C 150.924,285.515 151.59,287.848 151.5,290.5C 150.076,288.485 149.41,286.152 149.5,283.5 Z"/></g>
<g><path style="opacity:1" fill="#222222" d="M 242.5,291.5 C 250.742,293.12 259.076,293.786 267.5,293.5C 261.681,294.653 255.681,294.819 249.5,294C 246.896,293.61 244.562,292.776 242.5,291.5 Z"/></g>
<g><path style="opacity:1" fill="#383838" d="M 332.5,287.5 C 333.268,288.263 333.768,289.263 334,290.5C 334.499,295.489 334.666,300.489 334.5,305.5C 334.167,305.5 333.833,305.5 333.5,305.5C 333.64,299.464 333.307,293.464 332.5,287.5 Z"/></g>
<g><path style="opacity:1" fill="#888888" d="M 154.5,303.5 C 155.906,303.973 156.573,304.973 156.5,306.5C 155.094,306.027 154.427,305.027 154.5,303.5 Z"/></g>
<g><path style="opacity:1" fill="#8b8b8b" d="M 333.5,305.5 C 333.833,305.5 334.167,305.5 334.5,305.5C 334.741,307.898 334.074,309.898 332.5,311.5C 332.517,309.435 332.85,307.435 333.5,305.5 Z"/></g>
<g><path style="opacity:1" fill="#444444" d="M 281.5,311.5 C 278.495,313.277 275.162,314.277 271.5,314.5C 274.505,312.723 277.838,311.723 281.5,311.5 Z"/></g>
<g><path style="opacity:1" fill="#6c6c6c" d="M 241.5,312.5 C 243.898,312.259 245.898,312.926 247.5,314.5C 245.102,314.741 243.102,314.074 241.5,312.5 Z"/></g>
<g><path style="opacity:1" fill="#656565" d="M 355.5,312.5 C 355.655,315.716 354.655,318.383 352.5,320.5C 353.129,317.603 354.129,314.936 355.5,312.5 Z"/></g>
<g><path style="opacity:1" fill="#989898" d="M 184.5,314.5 C 185.906,314.973 186.573,315.973 186.5,317.5C 185.094,317.027 184.427,316.027 184.5,314.5 Z"/></g>
<g><path style="opacity:1" fill="#8b8b8b" d="M 330.5,316.5 C 330.573,318.027 329.906,319.027 328.5,319.5C 328.427,317.973 329.094,316.973 330.5,316.5 Z"/></g>
<g><path style="opacity:1" fill="#4b4b4b" d="M 225.5,343.5 C 228.152,343.41 230.485,344.076 232.5,345.5C 229.848,345.59 227.515,344.924 225.5,343.5 Z"/></g>
<g><path style="opacity:1" fill="#a7a7a7" d="M 295.5,343.5 C 293.485,344.924 291.152,345.59 288.5,345.5C 290.515,344.076 292.848,343.41 295.5,343.5 Z"/></g>
<g><path style="opacity:1" fill="#4e4e4e" d="M 232.5,345.5 C 244.431,347.12 256.431,347.787 268.5,347.5C 260.344,348.657 252.01,348.823 243.5,348C 239.608,347.581 235.942,346.748 232.5,345.5 Z"/></g>
<g><path style="opacity:1" fill="#525252" d="M 312.5,358.5 C 310.967,360.245 308.967,361.245 306.5,361.5C 308.033,359.755 310.033,358.755 312.5,358.5 Z"/></g>
<g><path style="opacity:1" fill="#999999" d="M 208.5,359.5 C 212.767,360.256 216.767,361.589 220.5,363.5C 216.085,363.139 212.085,361.806 208.5,359.5 Z"/></g>
<g><path style="opacity:1" fill="#3b3b3b" d="M 290.5,365.5 C 290.082,366.222 289.416,366.722 288.5,367C 285.854,367.497 283.187,367.664 280.5,367.5C 283.627,366.419 286.96,365.753 290.5,365.5 Z"/></g>
<g><path style="opacity:1" fill="#7a7a7a" d="M 233.5,366.5 C 248.483,367.355 263.483,367.689 278.5,367.5C 265.673,368.66 252.673,368.827 239.5,368C 237.292,367.809 235.292,367.309 233.5,366.5 Z"/></g>
</svg>
