<?xml version="1.0" standalone="no"?>
<!DOCTYPE svg PUBLIC "-//W3C//DTD SVG 20010904//EN"
 "http://www.w3.org/TR/2001/REC-SVG-20010904/DTD/svg10.dtd">
<svg version="1.0" xmlns="http://www.w3.org/2000/svg"
 width="518.000000pt" height="518.000000pt" viewBox="0 0 518.000000 518.000000"
 preserveAspectRatio="xMidYMid meet">

<g transform="translate(0.000000,518.000000) scale(0.100000,-0.100000)"
fill="#000000" stroke="none">
<path d="M2430 4559 c-535 -42 -1038 -291 -1375 -682 -274 -317 -421 -664
-457 -1078 -26 -305 42 -650 186 -939 453 -906 1557 -1322 2546 -958 427 157
806 476 1028 866 295 517 318 1139 63 1677 -348 733 -1146 1179 -1991 1114z
m628 -571 c7 -7 12 -33 12 -59 0 -63 31 -161 75 -234 99 -166 282 -280 482
-302 l68 -8 0 -220 0 -220 -90 3 c-148 5 -325 57 -472 138 l-63 35 0 -438 c0
-540 -9 -613 -92 -777 -44 -88 -83 -142 -157 -213 -113 -110 -232 -178 -384
-218 -121 -33 -321 -35 -439 -5 -178 45 -347 149 -461 285 -68 81 -139 221
-161 315 -21 88 -21 284 0 369 35 140 105 263 214 371 78 79 134 118 232 165
136 66 196 79 358 79 l145 1 3 -225 2 -225 -117 0 c-109 0 -122 -2 -175 -28
-72 -35 -138 -99 -175 -168 -25 -49 -28 -64 -28 -154 0 -89 3 -106 27 -151 35
-67 108 -138 177 -172 51 -24 66 -27 166 -27 98 0 116 3 165 26 82 39 144 99
182 177 l33 67 3 900 c1 495 4 906 7 913 6 17 445 18 463 0z"/>
</g>
</svg>
