<?xml version="1.0" standalone="no"?>
<!DOCTYPE svg PUBLIC "-//W3C//DTD SVG 20010904//EN"
 "http://www.w3.org/TR/2001/REC-SVG-20010904/DTD/svg10.dtd">
<svg version="1.0" xmlns="http://www.w3.org/2000/svg"
 width="518.000000pt" height="518.000000pt" viewBox="0 0 518.000000 518.000000"
 preserveAspectRatio="xMidYMid meet">

<g transform="translate(0.000000,518.000000) scale(0.100000,-0.100000)"
fill="#000000" stroke="none">
<path d="M1625 4510 c-234 -38 -428 -136 -588 -296 -131 -131 -223 -291 -274
-479 l-28 -100 0 -1000 0 -1000 28 -100 c51 -188 143 -348 274 -479 162 -162
356 -259 593 -296 88 -13 1862 -13 1950 0 237 37 431 134 593 296 131 131 223
291 274 479 l28 100 0 1000 0 1000 -28 100 c-51 188 -143 348 -274 479 -162
162 -356 259 -593 296 -78 12 -1880 12 -1955 0z m1999 -348 c123 -34 209 -85
307 -182 100 -98 155 -190 191 -315 l23 -80 0 -950 0 -950 -23 -80 c-70 -245
-277 -445 -519 -502 -73 -17 -140 -18 -998 -18 -858 0 -925 1 -998 18 -126 30
-228 88 -328 187 -99 98 -155 190 -191 315 l-23 80 0 950 0 950 23 80 c35 121
92 217 186 311 123 123 250 185 416 204 41 4 476 7 965 6 883 -2 891 -2 969
-24z"/>
<path d="M3515 3866 c-60 -28 -97 -66 -124 -126 -54 -118 1 -258 124 -316 203
-96 411 125 311 329 -58 119 -194 168 -311 113z"/>
<path d="M2495 3599 c-331 -36 -637 -264 -773 -574 -59 -136 -77 -224 -77
-390 0 -125 4 -164 23 -235 129 -475 562 -780 1037 -729 404 44 727 326 837
729 33 123 33 347 0 470 -110 405 -433 685 -840 729 -56 6 -108 10 -115 10 -7
-1 -48 -6 -92 -10z m249 -344 c215 -46 404 -225 472 -450 25 -83 25 -257 0
-340 -68 -225 -257 -404 -472 -450 -88 -19 -190 -19 -278 0 -215 46 -404 225
-472 450 -25 83 -25 257 0 340 51 168 181 326 328 398 130 64 278 83 422 52z"/>
</g>
</svg>
