<?xml version="1.0" standalone="no"?>
<!DOCTYPE svg PUBLIC "-//W3C//DTD SVG 20010904//EN"
 "http://www.w3.org/TR/2001/REC-SVG-20010904/DTD/svg10.dtd">
<svg version="1.0" xmlns="http://www.w3.org/2000/svg"
 width="200.000000pt" height="200.000000pt" viewBox="0 0 200.000000 200.000000"
 preserveAspectRatio="xMidYMid meet">

<g transform="translate(0.000000,200.000000) scale(0.100000,-0.100000)"
fill="#000000" stroke="none">
<path d="M900 1864 c-88 -14 -154 -29 -227 -54 -285 -97 -508 -333 -585 -620
-31 -117 -31 -308 1 -424 84 -311 329 -545 669 -638 117 -32 353 -32 477 1
398 103 671 416 702 802 19 244 -97 517 -294 693 -190 171 -512 274 -743 240z
m298 -90 c293 -60 550 -292 630 -569 35 -119 35 -125 12 -125 -29 0 -77 -27
-90 -49 -16 -30 -12 -86 8 -110 9 -12 35 -28 57 -36 46 -15 46 -18 14 -130
-116 -395 -548 -654 -968 -581 -203 35 -339 104 -477 241 -106 105 -164 197
-206 327 -35 110 -36 138 -5 138 30 0 64 25 83 61 12 25 13 37 4 65 -12 36
-59 74 -92 74 -22 0 -23 18 -3 95 34 132 125 286 226 380 214 201 506 280 807
219z m-998 -764 c24 -24 24 -29 4 -58 -17 -24 -62 -30 -82 -10 -18 18 -15 65
6 77 26 16 50 13 72 -9z m1686 -5 c15 -23 15 -27 0 -50 -11 -17 -26 -25 -44
-25 -35 0 -52 17 -52 52 0 50 68 66 96 23z"/>
<path d="M935 1754 c-81 -11 -93 -15 -98 -34 -5 -20 -33 -37 -44 -26 -3 3 0
13 8 22 12 15 10 16 -21 9 -63 -13 -182 -67 -255 -117 -81 -53 -170 -145 -223
-226 -41 -64 -90 -181 -98 -231 -5 -33 -2 -37 28 -51 100 -46 102 -183 2 -242
-33 -20 -35 -23 -29 -57 11 -58 63 -175 107 -238 273 -394 835 -479 1209 -181
128 102 236 261 272 401 l15 57 -32 14 c-103 43 -108 194 -7 245 l40 21 -15
52 c-75 268 -305 486 -584 557 -76 19 -220 32 -275 25z m154 -90 c57 -48 36
-133 -37 -154 -46 -14 -98 1 -88 26 3 9 6 47 6 85 l0 69 44 0 c33 0 52 -7 75
-26z m-199 -74 c56 -70 58 -76 40 -84 -15 -7 -24 -5 -33 8 -16 22 -78 11 -84
-15 -3 -10 -24 -28 -48 -40 -37 -19 -47 -20 -79 -9 -45 14 -56 7 -31 -20 14
-16 15 -22 5 -35 -17 -20 -23 -15 -80 70 l-49 73 37 22 c65 39 116 22 114 -39
-1 -27 4 -32 35 -40 20 -6 39 -8 44 -6 4 3 10 41 14 85 7 77 23 116 46 108 5
-2 36 -37 69 -78z m343 55 c-1 -5 -12 -45 -24 -88 -20 -67 -26 -77 -43 -75
-25 4 -25 -2 5 99 20 68 27 79 44 77 11 -2 19 -7 18 -13z m176 -71 c25 -21 31
-33 31 -66 0 -85 -93 -128 -158 -73 -38 32 -47 67 -27 104 33 65 101 80 154
35z m-287 -140 c34 -17 68 -61 68 -87 0 -17 -5 -19 -35 -14 -47 8 -54 -9 -10
-23 19 -6 35 -16 35 -22 0 -6 -6 -8 -12 -5 -42 15 -58 17 -58 8 0 -6 16 -18
37 -26 43 -18 38 -32 -6 -17 -44 15 -49 -4 -6 -22 19 -8 35 -20 35 -26 0 -7
-6 -8 -19 0 -24 12 -51 13 -51 1 0 -5 14 -12 30 -16 17 -4 30 -13 30 -21 0
-12 -4 -12 -21 -4 -11 6 -28 9 -37 7 -12 -3 -5 -9 21 -21 35 -15 38 -20 32
-44 -11 -47 -39 -65 -103 -70 l-60 -4 5 -134 c6 -143 2 -167 -22 -158 -17 7
-20 79 -7 196 5 45 4 66 -3 65 -5 -1 -9 8 -8 19 2 17 -5 23 -28 28 -17 3 -44
15 -60 27 -25 18 -30 27 -27 57 3 31 7 38 36 46 41 11 43 31 2 23 -17 -4 -30
-2 -30 4 0 5 14 12 30 16 17 3 30 10 30 15 0 6 -11 8 -25 5 -16 -3 -24 0 -22
7 2 6 16 12 30 14 15 2 27 8 27 14 0 6 -13 8 -30 6 -19 -3 -29 -1 -27 6 2 6
16 12 30 14 35 4 35 20 0 24 -22 3 -24 6 -10 11 9 4 25 10 35 14 13 5 9 8 -15
11 -18 2 -33 9 -33 15 0 21 17 40 30 32 7 -4 13 1 17 14 3 12 9 21 14 21 5 0
6 -7 3 -15 -4 -8 -1 -15 5 -15 7 0 14 7 17 15 4 8 10 15 16 15 5 0 6 -4 3 -10
-11 -18 14 -11 35 10 21 21 61 19 112 -6z m-242 -11 c-1 -19 -30 -42 -83 -68
-76 -36 -166 -124 -200 -197 -15 -31 -27 -59 -27 -62 0 -3 11 -6 24 -6 19 0
23 -4 19 -20 -5 -18 -14 -20 -89 -20 -77 0 -84 2 -84 20 0 17 7 20 39 20 38 0
39 1 74 73 57 119 136 194 257 244 60 25 70 27 70 16z m372 -45 c96 -51 183
-158 221 -270 5 -14 17 -18 52 -18 38 0 45 -3 45 -20 0 -19 -7 -20 -90 -20
-83 0 -90 1 -90 20 0 13 7 20 20 20 26 0 25 10 -6 71 -30 61 -88 126 -147 165
-42 28 -76 62 -77 77 0 12 9 9 72 -25z m-818 -383 c-6 -16 -24 -21 -24 -7 0
11 11 22 21 22 5 0 6 -7 3 -15z m73 -4 c11 -14 12 -14 13 4 0 16 2 17 10 5 7
-12 12 -12 22 -2 6 6 19 12 27 12 11 0 10 -4 -5 -14 -19 -15 -19 -15 1 -30 16
-12 17 -15 5 -16 -9 0 -22 6 -28 12 -10 10 -15 10 -21 -1 -6 -9 -11 -10 -15
-2 -4 6 -12 8 -18 5 -6 -4 -28 -8 -50 -9 -33 -3 -37 -1 -27 11 7 8 18 13 26
10 8 -3 13 2 13 13 0 22 31 24 47 2z m118 -11 c0 -17 -5 -30 -12 -30 -8 0 -13
13 -13 30 0 17 5 30 13 30 7 0 12 -13 12 -30z m790 20 c5 -8 11 -7 21 1 11 9
18 9 26 1 8 -8 16 -7 29 1 12 8 22 8 28 2 14 -14 2 -55 -15 -55 -17 0 -18 12
-2 28 9 9 8 12 -4 12 -8 0 -22 -10 -31 -22 -14 -23 -15 -23 -36 -4 -19 17 -21
17 -21 3 0 -10 -7 -17 -15 -17 -17 0 -20 16 -5 25 17 10 11 25 -7 18 -11 -4
-14 -3 -9 5 9 15 33 16 41 2z m160 -40 c-8 -12 -35 -1 -35 14 0 7 5 17 12 24
10 10 14 8 20 -9 5 -11 6 -25 3 -29z m-947 -72 c3 -13 -3 -18 -22 -18 -14 0
-27 -4 -30 -8 -10 -16 41 -107 89 -160 204 -226 591 -181 734 87 38 71 38 81
6 81 -18 0 -25 5 -25 20 0 20 5 21 92 18 79 -3 93 -6 96 -20 3 -15 -4 -18 -43
-18 -35 0 -47 -4 -51 -17 -19 -65 -72 -148 -128 -200 -115 -107 -263 -156
-411 -135 -187 27 -340 149 -404 325 -9 23 -16 27 -51 27 -34 0 -40 3 -40 20
0 20 5 21 92 18 79 -3 93 -6 96 -20z m-153 -118 c27 -52 14 -90 -31 -90 -13 0
-24 -8 -27 -20 -3 -11 -17 -25 -31 -31 -30 -14 -52 1 -86 57 l-19 34 77 40
c42 21 83 39 89 40 7 0 19 -13 28 -30z m1130 -10 c3 -5 18 -7 34 -4 32 7 61
-16 61 -46 0 -29 -32 -90 -47 -90 -23 0 -163 74 -163 86 0 7 15 29 34 49 29
31 38 35 55 26 11 -6 23 -15 26 -21z m-631 -40 c33 -12 36 -44 4 -35 -13 4
-31 9 -40 11 -10 3 -15 11 -11 20 6 17 13 17 47 4z m5 -53 c133 -3 142 -17 10
-17 -101 0 -179 13 -179 29 0 17 12 18 40 4 18 -9 66 -15 129 -16z m506 -8 c4
-5 0 -18 -9 -28 -34 -38 -7 -65 30 -30 19 17 27 20 36 11 9 -9 7 -17 -10 -35
-21 -22 -21 -25 -6 -38 14 -12 19 -10 35 10 11 14 25 21 34 17 22 -8 19 -19
-20 -56 -39 -38 -38 -38 -130 44 l-50 44 34 36 c37 38 46 42 56 25z m-675 -9
c8 -5 11 -10 5 -10 -5 0 -17 5 -25 10 -8 5 -10 10 -5 10 6 0 17 -5 25 -10z
m-256 -10 c8 0 25 -12 40 -26 37 -37 35 -86 -3 -125 -80 -80 -219 18 -155 110
19 26 72 53 92 46 8 -3 19 -5 26 -5z m855 -97 c29 -106 33 -145 20 -154 -23
-14 -34 -11 -64 21 -16 17 -32 30 -35 30 -4 0 -2 -21 3 -46 10 -41 9 -48 -8
-60 -18 -13 -25 -8 -87 53 -37 37 -68 70 -68 74 0 4 8 10 17 13 11 5 32 -8 66
-41 28 -27 47 -40 43 -29 -43 123 -28 152 44 81 28 -27 50 -45 50 -41 0 5 -8
34 -17 63 -15 47 -15 56 -3 64 24 14 29 11 39 -28z m-677 -24 c55 -28 59 -32
45 -46 -13 -13 -19 -14 -31 -4 -12 10 -21 2 -52 -53 -41 -70 -41 -71 -63 -57
-11 7 -7 22 23 75 20 36 33 66 29 66 -19 1 -33 18 -27 33 8 22 4 22 76 -14z
m148 -63 c0 -14 -21 -26 -46 -26 -21 0 -17 16 9 28 30 15 37 14 37 -2z m187
-10 c3 -3 3 -12 0 -20 -5 -11 -15 -14 -35 -10 -47 9 -46 -12 0 -38 48 -26 60
-58 32 -89 -27 -30 -124 -25 -124 6 0 20 15 26 42 17 56 -21 65 14 10 43 -44
24 -52 55 -21 86 17 17 29 20 56 16 20 -4 38 -8 40 -11z"/>
<path d="M1010 1595 c0 -30 4 -55 9 -55 44 0 70 49 46 86 -8 13 -24 24 -35 24
-18 0 -20 -7 -20 -55z"/>
<path d="M820 1575 c0 -18 4 -23 15 -19 17 7 17 7 9 28 -9 24 -24 19 -24 -9z"/>
<path d="M601 1540 c-10 -6 -10 -12 -2 -28 13 -25 41 -19 41 8 0 21 -21 32
-39 20z"/>
<path d="M1310 1540 c-24 -24 -26 -53 -4 -74 23 -23 50 -19 73 10 25 32 26 47
5 68 -21 22 -50 20 -74 -4z"/>
<path d="M978 1373 c-33 -8 -18 -20 30 -26 26 -2 55 -8 66 -12 13 -6 17 -4 14
5 -3 9 -93 47 -93 39 0 -1 -8 -3 -17 -6z"/>
<path d="M950 1321 c0 -4 21 -11 48 -14 26 -3 55 -9 65 -12 9 -4 17 -3 17 3 0
6 -14 15 -31 21 -38 13 -99 15 -99 2z"/>
<path d="M946 1281 c-3 -5 16 -11 42 -14 26 -3 57 -9 70 -12 13 -5 22 -3 22 3
0 22 -122 43 -134 23z"/>
<path d="M940 1241 c0 -4 19 -11 43 -14 23 -3 52 -9 65 -13 12 -3 22 -2 22 3
0 12 -67 33 -104 33 -14 0 -26 -4 -26 -9z"/>
<path d="M935 1200 c-7 -11 -5 -11 40 -15 17 -1 46 -5 65 -10 44 -10 30 7 -19
24 -42 14 -78 14 -86 1z"/>
<path d="M940 1145 c-13 -15 -11 -20 18 -46 18 -16 38 -29 45 -29 6 0 2 8 -11
18 -12 10 -26 30 -30 46 -7 26 -9 27 -22 11z"/>
<path d="M893 1133 c-4 -11 4 -26 26 -45 18 -16 36 -27 39 -23 3 3 -4 12 -16
21 -12 8 -22 26 -22 40 0 27 -17 32 -27 7z"/>
<path d="M850 1121 c0 -11 14 -29 31 -41 38 -28 47 -21 14 10 -14 13 -25 29
-25 37 0 7 -4 13 -10 13 -5 0 -10 -9 -10 -19z"/>
<path d="M1440 980 c0 -5 5 -10 10 -10 6 0 10 5 10 10 0 6 -4 10 -10 10 -5 0
-10 -4 -10 -10z"/>
<path d="M414 739 c-7 -12 15 -31 28 -23 4 3 8 12 8 20 0 17 -26 19 -36 3z"/>
<path d="M347 709 c-14 -8 -16 -14 -6 -25 22 -27 55 -12 43 20 -7 19 -12 19
-37 5z"/>
<path d="M1546 731 c-7 -11 18 -33 27 -24 4 3 7 12 7 20 0 15 -26 18 -34 4z"/>
<path d="M1620 705 c-12 -14 -11 -18 1 -26 25 -15 41 -10 37 13 -4 27 -21 33
-38 13z"/>
<path d="M482 577 c-27 -28 -27 -39 -4 -60 26 -24 55 -21 82 8 20 21 22 28 12
50 -15 33 -60 34 -90 2z"/>
</g>
</svg>
