<?xml version="1.0" standalone="no"?>
<!DOCTYPE svg PUBLIC "-//W3C//DTD SVG 20010904//EN"
 "http://www.w3.org/TR/2001/REC-SVG-20010904/DTD/svg10.dtd">
<svg version="1.0" xmlns="http://www.w3.org/2000/svg"
 width="518.000000pt" height="518.000000pt" viewBox="0 0 518.000000 518.000000"
 preserveAspectRatio="xMidYMid meet">

<g transform="translate(0.000000,518.000000) scale(0.100000,-0.100000)"
fill="#000000" stroke="none">
<path d="M2465 4514 c-195 -22 -481 -94 -573 -144 -9 -5 -62 -31 -117 -57
-504 -244 -880 -743 -997 -1323 -33 -165 -37 -470 -8 -643 38 -233 113 -448
226 -644 21 -35 20 -39 -34 -193 -16 -47 -38 -112 -49 -145 -11 -33 -68 -203
-127 -379 -59 -175 -105 -321 -103 -323 3 -2 20 3 38 11 19 8 108 38 199 66
91 28 190 59 220 70 30 10 129 42 220 71 91 29 208 66 260 83 l94 31 81 -40
c121 -60 191 -86 377 -139 87 -25 337 -56 453 -56 116 0 366 31 453 56 112 32
218 67 262 86 99 44 118 53 188 92 92 52 165 97 207 129 63 48 92 72 156 129
71 64 202 208 238 260 107 161 141 213 141 222 0 5 6 17 13 25 36 44 121 265
166 434 65 243 65 652 0 894 -45 168 -76 251 -147 393 -93 186 -190 323 -334
470 -80 83 -240 220 -255 220 -6 0 -16 7 -24 16 -7 8 -29 24 -48 35 -20 11
-54 31 -76 44 -156 98 -394 184 -620 225 -117 21 -382 34 -480 24z m415 -335
c277 -46 536 -164 735 -335 281 -241 449 -509 529 -844 77 -325 47 -670 -86
-980 -30 -70 -79 -163 -94 -181 -8 -8 -14 -19 -14 -23 0 -4 -32 -51 -72 -104
-71 -96 -234 -265 -294 -306 -236 -161 -372 -228 -579 -280 -294 -75 -651 -56
-925 51 -85 33 -226 101 -270 131 -42 28 -53 27 -218 -27 -64 -21 -164 -53
-222 -71 -58 -18 -124 -39 -148 -48 -23 -8 -45 -13 -47 -10 -5 4 17 80 35 123
5 11 17 47 28 80 10 33 42 129 71 213 l52 153 -43 67 c-62 97 -63 100 -102
178 -50 101 -102 261 -128 389 -29 147 -31 394 -5 540 19 104 73 293 88 310 5
5 9 15 9 22 0 26 87 191 153 288 265 393 696 642 1187 685 102 9 222 2 360
-21z"/>
<path d="M1925 3542 c-54 -25 -133 -114 -178 -199 -38 -73 -70 -217 -61 -278
32 -209 70 -301 225 -533 99 -149 168 -232 293 -358 164 -164 305 -261 491
-339 296 -125 380 -145 515 -126 114 16 213 65 296 146 51 49 94 164 94 250
l0 54 -67 39 c-103 60 -322 172 -366 188 -33 12 -43 12 -68 -1 -16 -9 -29 -19
-29 -24 0 -4 -10 -19 -22 -33 -13 -14 -51 -57 -86 -96 -35 -39 -72 -74 -82
-77 -36 -11 -250 106 -365 200 -72 59 -155 145 -209 218 -70 96 -136 206 -136
229 0 11 19 40 43 66 24 26 54 58 66 72 29 32 61 94 61 118 0 11 -27 93 -59
183 -117 322 -105 305 -226 313 -76 6 -96 4 -130 -12z"/>
</g>
</svg>
