<?xml version="1.0" encoding="UTF-8"?>
<!DOCTYPE svg PUBLIC "-//W3C//DTD SVG 1.1//EN" "http://www.w3.org/Graphics/SVG/1.1/DTD/svg11.dtd">
<svg xmlns="http://www.w3.org/2000/svg" version="1.1" width="528px" height="532px" style="shape-rendering:geometricPrecision; text-rendering:geometricPrecision; image-rendering:optimizeQuality; fill-rule:evenodd; clip-rule:evenodd" xmlns:xlink="http://www.w3.org/1999/xlink">
<g><path style="opacity:0.982" fill="#000000" d="M 245.5,55.5 C 320.502,49.3328 385.669,71.3328 441,121.5C 462.838,145.362 479.838,172.362 492,202.5C 509.468,257.831 504.135,310.831 476,361.5C 445.411,412.396 401.578,446.563 344.5,464C 256.998,487.837 178.665,470.837 109.5,413C 59.8447,365.826 38.0114,307.993 44,239.5C 54.4147,180.125 83.9147,132.958 132.5,98C 166.817,74.84 204.484,60.6733 245.5,55.5 Z M 369.5,183.5 C 378.125,181.634 383.125,184.967 384.5,193.5C 371.292,251.666 357.458,309.666 343,367.5C 339.95,371.13 336.117,372.297 331.5,371C 329.5,370.333 327.5,369.667 325.5,369C 307.251,355.625 288.418,343.125 269,331.5C 266.433,332.868 263.933,334.368 261.5,336C 252.768,345.579 242.768,353.412 231.5,359.5C 231.606,342.152 232.773,324.818 235,307.5C 271.037,277.976 306.704,247.976 342,217.5C 342.658,215.892 342.158,214.725 340.5,214C 338.029,213.294 335.695,213.627 333.5,215C 290.461,240.519 247.128,265.519 203.5,290C 201.833,290.667 200.167,290.667 198.5,290C 181.833,285.333 165.167,280.667 148.5,276C 134.243,272.309 133.91,267.643 147.5,262C 221.491,235.49 295.491,209.323 369.5,183.5 Z"/></g>
</svg>
